<svg xmlns="http://www.w3.org/2000/svg" viewBox="0 0 1024 1024" role="img" aria-labelledby="title desc">
  <title id="title">SketchyBar Studio logo</title>
  <desc id="desc">A macOS menu bar window with code sliders and a colorful terminal-inspired mark.</desc>
  <defs>
    <linearGradient id="bg" x1="160" y1="128" x2="864" y2="896" gradientUnits="userSpaceOnUse">
      <stop offset="0" stop-color="#1a1b26"/>
      <stop offset="0.45" stop-color="#282a36"/>
      <stop offset="1" stop-color="#1e1e2e"/>
    </linearGradient>
    <linearGradient id="accent" x1="252" y1="302" x2="780" y2="744" gradientUnits="userSpaceOnUse">
      <stop offset="0" stop-color="#88c0d0"/>
      <stop offset="0.35" stop-color="#bd93f9"/>
      <stop offset="0.68" stop-color="#a6e22e"/>
      <stop offset="1" stop-color="#f7768e"/>
    </linearGradient>
    <filter id="shadow" x="-20%" y="-20%" width="140%" height="140%">
      <feDropShadow dx="0" dy="28" stdDeviation="38" flood-color="#000000" flood-opacity="0.35"/>
    </filter>
  </defs>
  <rect width="1024" height="1024" rx="224" fill="url(#bg)"/>
  <g filter="url(#shadow)">
    <rect x="154" y="218" width="716" height="588" rx="84" fill="#11131d"/>
    <rect x="154" y="218" width="716" height="116" rx="84" fill="#24283b"/>
    <path d="M154 292h716v72H154z" fill="#24283b"/>
    <circle cx="242" cy="276" r="22" fill="#ff5f57"/>
    <circle cx="308" cy="276" r="22" fill="#ffbd2e"/>
    <circle cx="374" cy="276" r="22" fill="#28c840"/>
    <rect x="240" y="430" width="214" height="34" rx="17" fill="#565f89"/>
    <rect x="240" y="520" width="326" height="34" rx="17" fill="#565f89"/>
    <rect x="240" y="610" width="248" height="34" rx="17" fill="#565f89"/>
    <rect x="612" y="416" width="136" height="62" rx="31" fill="#313244"/>
    <rect x="612" y="506" width="136" height="62" rx="31" fill="#313244"/>
    <rect x="612" y="596" width="136" height="62" rx="31" fill="#313244"/>
    <circle cx="706" cy="447" r="22" fill="#88c0d0"/>
    <circle cx="654" cy="537" r="22" fill="#bd93f9"/>
    <circle cx="708" cy="627" r="22" fill="#a6e22e"/>
    <path d="M312 716l-74-74 74-74" fill="none" stroke="url(#accent)" stroke-width="42" stroke-linecap="round" stroke-linejoin="round"/>
    <path d="M712 568l74 74-74 74" fill="none" stroke="url(#accent)" stroke-width="42" stroke-linecap="round" stroke-linejoin="round"/>
    <path d="M470 734l84-184" fill="none" stroke="url(#accent)" stroke-width="42" stroke-linecap="round"/>
  </g>
</svg>
